<svg width="24" height="24" viewBox="0 0 24 24" fill="none" xmlns="http://www.w3.org/2000/svg">
<mask id="mask0" mask-type="alpha" maskUnits="userSpaceOnUse" x="0" y="0" width="24" height="24">
<circle cx="12" cy="12" r="12" fill="#C4C4C4"/>
</mask>
<g mask="url(#mask0)">
<mask id="mask1" mask-type="alpha" maskUnits="userSpaceOnUse" x="0" y="-1" width="24" height="25">
<path d="M12 23.9023C18.6274 23.9023 24 18.5298 24 11.9023C24 5.27493 18.6274 -0.0976562 12 -0.0976562C5.37258 -0.0976562 0 5.27493 0 11.9023C0 18.5298 5.37258 23.9023 12 23.9023Z" fill="white"/>
</mask>
<g mask="url(#mask1)">
<path d="M12 23.9023C18.6274 23.9023 24 18.5298 24 11.9023C24 5.27493 18.6274 -0.0976562 12 -0.0976562C5.37258 -0.0976562 0 5.27493 0 11.9023C0 18.5298 5.37258 23.9023 12 23.9023Z" fill="#BBC1C7"/>
<path fill-rule="evenodd" clip-rule="evenodd" d="M2.47515 14.2846C2.45114 14.0561 1.92731 14.0554 1.82857 13.2211C1.77559 12.7734 1.98631 12.5213 2.11394 12.4421C2.11394 12.4421 1.79606 11.7194 1.79606 11.0028C1.79606 8.87092 2.85443 7.10156 5.40825 7.10156C6.7869 7.10156 7.21434 8.07627 7.21434 8.07627C8.4461 8.07627 9.02043 9.4231 9.02043 11.0028C9.02043 11.7902 8.70256 12.4421 8.70256 12.4421C8.83019 12.5213 9.0409 12.7734 8.98792 13.2211C8.88919 14.0554 8.55446 14.2666 8.34134 14.2846C8.25947 15.0625 7.48526 16.0588 7.21434 16.204V17.5041C7.56785 18.65 9.37156 18.6797 10.8 19.4315C9.98545 20.1316 7.42318 21.5016 5.40825 21.5016C3.39332 21.5016 1.0391 20.2358 0 19.4402C1.431 18.6799 3.24729 18.6544 3.60216 17.5041V16.204C3.33124 16.06 2.55703 15.0637 2.47515 14.2846Z" fill="white"/>
<path fill-rule="evenodd" clip-rule="evenodd" d="M15.6744 14.2846C15.6504 14.0561 15.1265 14.0554 15.0278 13.2211C14.9748 12.7734 15.1855 12.5213 15.3132 12.4421C15.3132 12.4421 14.9953 11.7194 14.9953 11.0028C14.9953 8.87092 16.0537 7.10156 18.6075 7.10156C19.9861 7.10156 20.4136 8.07627 20.4136 8.07627C21.6453 8.07627 22.2197 9.4231 22.2197 11.0028C22.2197 11.7902 21.9018 12.4421 21.9018 12.4421C22.0294 12.5213 22.2401 12.7734 22.1871 13.2211C22.0884 14.0554 21.7537 14.2666 21.5406 14.2846C21.4587 15.0625 20.6845 16.0588 20.4136 16.204V17.5041C20.7671 18.65 22.5708 18.6797 23.9992 19.4315C23.1847 20.1316 20.6224 21.5016 18.6075 21.5016C16.5925 21.5016 14.2383 20.2358 13.1992 19.4402C14.6302 18.6799 16.4465 18.6544 16.8014 17.5041V16.204C16.5305 16.06 15.7562 15.0637 15.6744 14.2846Z" fill="white"/>
<path fill-rule="evenodd" clip-rule="evenodd" d="M7.3143 13.0754C7.27828 12.7326 6.49253 12.7315 6.34443 11.4801C6.26496 10.8085 6.58103 10.4304 6.77247 10.3115C6.77247 10.3115 6.29566 9.22757 6.29566 8.15263C6.29566 4.95482 7.88322 2.30078 11.714 2.30078C13.7819 2.30078 14.4231 3.76284 14.4231 3.76284C16.2707 3.76284 17.1322 5.78308 17.1322 8.15263C17.1322 9.33381 16.6554 10.3115 16.6554 10.3115C16.8469 10.4304 17.1629 10.8085 17.0835 11.4801C16.9354 12.7315 16.4333 13.0484 16.1136 13.0754C15.9908 14.2422 14.8295 15.7366 14.4231 15.9545V17.9045C14.9534 19.6235 17.6589 19.668 19.8016 20.7956C18.5798 21.8458 14.7364 23.9008 11.714 23.9008C8.69155 23.9008 5.16021 22.0021 3.60156 20.8087C5.74807 19.6683 8.47251 19.6301 9.00481 17.9045V15.9545C8.59844 15.7384 7.43712 14.244 7.3143 13.0754Z" fill="white" stroke="#BBC1C7"/>
<path d="M11.9992 23.4516C18.3781 23.4516 23.5492 18.2805 23.5492 11.9016C23.5492 5.52268 18.3781 0.351562 11.9992 0.351562C5.62032 0.351562 0.449219 5.52268 0.449219 11.9016C0.449219 18.2805 5.62032 23.4516 11.9992 23.4516Z" stroke="#BBC1C7"/>
</g>
</g>
</svg>
